<svg width="66" height="66" viewBox="0 0 66 66" fill="none" xmlns="http://www.w3.org/2000/svg">
<path d="M13.493 30.0037C14.7395 21.9123 20.8846 15.4392 28.8229 13.7334V0.131134C13.4711 2.05558 1.3996 14.4988 0 30.0037H13.493Z" fill="white"/>
<path d="M36.1055 13.5148C44.5468 14.8488 51.1949 21.5406 52.507 29.9819H66C64.5785 14.1053 51.9603 1.4652 36.1055 0V13.5148Z" fill="white"/>
<path d="M29.3043 52.3973C21.5628 50.9321 15.4177 44.9401 13.7338 37.2861H0.131493C2.0778 52.3755 14.1493 64.272 29.3043 65.9559V52.3973Z" fill="white"/>
<path d="M48.6578 61.7788C48.6578 54.8465 54.2781 49.2481 61.1886 49.2481C68.0991 49.2481 64.447 49.5761 65.9122 50.1666V35.5802H35.5366V65.9558H49.3795C48.9203 64.6436 48.6578 63.244 48.6578 61.7788Z" fill="#F4EDEB"/>
</svg>
