<svg width="46" height="38" viewBox="0 0 46 38" fill="none" xmlns="http://www.w3.org/2000/svg">
<path fill-rule="evenodd" clip-rule="evenodd" d="M19.8333 1.16675C20.192 1.16675 20.5104 1.39627 20.6239 1.73656L24.8333 14.3649L26.5427 9.23656C26.6562 8.89627 26.9746 8.66675 27.3333 8.66675H30.6666C31.1269 8.66675 31.5 9.03984 31.5 9.50008C31.5 9.96032 31.1269 10.3334 30.6666 10.3334H27.9339L25.6239 17.2636C25.5104 17.6039 25.192 17.8334 24.8333 17.8334C24.4746 17.8334 24.1562 17.6039 24.0427 17.2636L19.8333 4.63531L18.1239 9.7636C18.0104 10.1039 17.692 10.3334 17.3333 10.3334H14C13.5397 10.3334 13.1666 9.96032 13.1666 9.50008C13.1666 9.03984 13.5397 8.66675 14 8.66675H16.7327L19.0427 1.73656C19.1562 1.39627 19.4746 1.16675 19.8333 1.16675Z" fill="#879AAF"/>
<path d="M5.928 30.296H2.436L1.836 32H0.408L3.396 23.648H4.98L7.968 32H6.528L5.928 30.296ZM5.544 29.18L4.188 25.304L2.82 29.18H5.544ZM8.81119 28.688C8.81119 28.008 8.94719 27.412 9.21919 26.9C9.49919 26.38 9.88319 25.98 10.3712 25.7C10.8592 25.42 11.4192 25.28 12.0512 25.28C12.8512 25.28 13.5112 25.472 14.0312 25.856C14.5592 26.232 14.9152 26.772 15.0992 27.476H13.6232C13.5032 27.148 13.3112 26.892 13.0472 26.708C12.7832 26.524 12.4512 26.432 12.0512 26.432C11.4912 26.432 11.0432 26.632 10.7072 27.032C10.3792 27.424 10.2152 27.976 10.2152 28.688C10.2152 29.4 10.3792 29.956 10.7072 30.356C11.0432 30.756 11.4912 30.956 12.0512 30.956C12.8432 30.956 13.3672 30.608 13.6232 29.912H15.0992C14.9072 30.584 14.5472 31.12 14.0192 31.52C13.4912 31.912 12.8352 32.108 12.0512 32.108C11.4192 32.108 10.8592 31.968 10.3712 31.688C9.88319 31.4 9.49919 31 9.21919 30.488C8.94719 29.968 8.81119 29.368 8.81119 28.688ZM18.0585 26.504V30.164C18.0585 30.412 18.1145 30.592 18.2265 30.704C18.3465 30.808 18.5465 30.86 18.8265 30.86H19.6665V32H18.5865C17.9705 32 17.4985 31.856 17.1705 31.568C16.8425 31.28 16.6785 30.812 16.6785 30.164V26.504H15.8985V25.388H16.6785V23.744H18.0585V25.388H19.6665V26.504H18.0585ZM21.6233 24.512C21.3753 24.512 21.1673 24.428 20.9993 24.26C20.8313 24.092 20.7473 23.884 20.7473 23.636C20.7473 23.388 20.8313 23.18 20.9993 23.012C21.1673 22.844 21.3753 22.76 21.6233 22.76C21.8633 22.76 22.0673 22.844 22.2353 23.012C22.4033 23.18 22.4873 23.388 22.4873 23.636C22.4873 23.884 22.4033 24.092 22.2353 24.26C22.0673 24.428 21.8633 24.512 21.6233 24.512ZM22.2953 25.388V32H20.9273V25.388H22.2953ZM26.9594 32.108C26.3354 32.108 25.7714 31.968 25.2674 31.688C24.7634 31.4 24.3674 31 24.0794 30.488C23.7914 29.968 23.6474 29.368 23.6474 28.688C23.6474 28.016 23.7954 27.42 24.0914 26.9C24.3874 26.38 24.7914 25.98 25.3034 25.7C25.8154 25.42 26.3874 25.28 27.0194 25.28C27.6514 25.28 28.2234 25.42 28.7354 25.7C29.2474 25.98 29.6514 26.38 29.9474 26.9C30.2434 27.42 30.3914 28.016 30.3914 28.688C30.3914 29.36 30.2394 29.956 29.9354 30.476C29.6314 30.996 29.2154 31.4 28.6874 31.688C28.1674 31.968 27.5914 32.108 26.9594 32.108ZM26.9594 30.92C27.3114 30.92 27.6394 30.836 27.9434 30.668C28.2554 30.5 28.5074 30.248 28.6994 29.912C28.8914 29.576 28.9874 29.168 28.9874 28.688C28.9874 28.208 28.8954 27.804 28.7114 27.476C28.5274 27.14 28.2834 26.888 27.9794 26.72C27.6754 26.552 27.3474 26.468 26.9954 26.468C26.6434 26.468 26.3154 26.552 26.0114 26.72C25.7154 26.888 25.4794 27.14 25.3034 27.476C25.1274 27.804 25.0394 28.208 25.0394 28.688C25.0394 29.4 25.2194 29.952 25.5794 30.344C25.9474 30.728 26.4074 30.92 26.9594 30.92ZM35.0798 25.28C35.5998 25.28 36.0638 25.388 36.4718 25.604C36.8878 25.82 37.2118 26.14 37.4438 26.564C37.6758 26.988 37.7918 27.5 37.7918 28.1V32H36.4358V28.304C36.4358 27.712 36.2878 27.26 35.9918 26.948C35.6958 26.628 35.2918 26.468 34.7798 26.468C34.2678 26.468 33.8598 26.628 33.5558 26.948C33.2598 27.26 33.1118 27.712 33.1118 28.304V32H31.7438V25.388H33.1118V26.144C33.3358 25.872 33.6198 25.66 33.9638 25.508C34.3158 25.356 34.6878 25.28 35.0798 25.28ZM41.9367 32.108C41.4167 32.108 40.9487 32.016 40.5327 31.832C40.1247 31.64 39.8007 31.384 39.5607 31.064C39.3207 30.736 39.1927 30.372 39.1767 29.972H40.5927C40.6167 30.252 40.7487 30.488 40.9887 30.68C41.2367 30.864 41.5447 30.956 41.9127 30.956C42.2967 30.956 42.5927 30.884 42.8007 30.74C43.0167 30.588 43.1247 30.396 43.1247 30.164C43.1247 29.916 43.0047 29.732 42.7647 29.612C42.5327 29.492 42.1607 29.36 41.6487 29.216C41.1527 29.08 40.7487 28.948 40.4367 28.82C40.1247 28.692 39.8527 28.496 39.6207 28.232C39.3967 27.968 39.2847 27.62 39.2847 27.188C39.2847 26.836 39.3887 26.516 39.5967 26.228C39.8047 25.932 40.1007 25.7 40.4847 25.532C40.8767 25.364 41.3247 25.28 41.8287 25.28C42.5807 25.28 43.1847 25.472 43.6407 25.856C44.1047 26.232 44.3527 26.748 44.3847 27.404H43.0167C42.9927 27.108 42.8727 26.872 42.6567 26.696C42.4407 26.52 42.1487 26.432 41.7807 26.432C41.4207 26.432 41.1447 26.5 40.9527 26.636C40.7607 26.772 40.6647 26.952 40.6647 27.176C40.6647 27.352 40.7287 27.5 40.8567 27.62C40.9847 27.74 41.1407 27.836 41.3247 27.908C41.5087 27.972 41.7807 28.056 42.1407 28.16C42.6207 28.288 43.0127 28.42 43.3167 28.556C43.6287 28.684 43.8967 28.876 44.1207 29.132C44.3447 29.388 44.4607 29.728 44.4687 30.152C44.4687 30.528 44.3647 30.864 44.1567 31.16C43.9487 31.456 43.6527 31.688 43.2687 31.856C42.8927 32.024 42.4487 32.108 41.9367 32.108Z" fill="#394E66"/>
</svg>
