<svg width="34" height="34" viewBox="0 0 34 34" fill="none" xmlns="http://www.w3.org/2000/svg">
<path d="M6.9145 15.3755C7.55328 11.229 10.7023 7.91184 14.7704 7.03773V0.0671959C6.90329 1.05338 0.717225 7.42996 0 15.3755H6.9145Z" fill="#14A29A"/>
<path d="M18.5023 6.9257C22.8281 7.60931 26.2349 11.0385 26.9073 15.3643H33.8218C33.0934 7.22828 26.6271 0.750845 18.5023 0V6.9257Z" fill="#003158"/>
<path d="M15.017 26.8511C11.0499 26.1003 7.90083 23.0296 7.03791 19.1073H0.0673828C1.06477 26.8399 7.25084 32.9363 15.017 33.7992V26.8511Z" fill="#4AAC54"/>
<path d="M24.9348 31.6587C24.9348 28.1062 27.8149 25.2373 31.3562 25.2373C34.8975 25.2373 33.026 25.4054 33.7768 25.7079V18.2331H18.2108V33.7991H25.3046C25.0693 33.1267 24.9348 32.4095 24.9348 31.6587Z" fill="#EB3F00"/>
</svg>
