<svg width="41" height="40" viewBox="0 0 41 40" fill="none" xmlns="http://www.w3.org/2000/svg">
<path d="M15.0908 2.00009C15.1625 2.00009 15.2324 2.0082 15.2998 2.02255C15.3077 2.02423 15.3154 2.02653 15.3232 2.02841C15.353 2.0355 15.3825 2.04313 15.4111 2.05282C15.4203 2.05592 15.4294 2.05922 15.4385 2.06259C15.4665 2.07298 15.4937 2.08497 15.5205 2.09774C15.5263 2.10049 15.5323 2.10268 15.5381 2.10555L20.8779 4.77548L25.5039 2.13192C25.8134 1.95509 26.1937 1.956 26.502 2.13485C26.8103 2.31377 27 2.64362 27 3.00009V14.6368C26.9999 14.9955 26.8076 15.327 26.4961 15.505L21.4053 18.4141C21.4023 18.4159 21.3985 18.4164 21.3955 18.4181C21.3645 18.4354 21.3327 18.4509 21.2998 18.4649C21.2948 18.467 21.2901 18.4697 21.2852 18.4718C21.2522 18.4852 21.2182 18.4961 21.1836 18.5059C21.1771 18.5078 21.1706 18.5091 21.1641 18.5108C21.1339 18.5188 21.1034 18.5252 21.0723 18.5304C21.0618 18.5321 21.0515 18.5338 21.041 18.5352C21.0127 18.539 20.9841 18.5417 20.9551 18.5431C20.9466 18.5434 20.9382 18.5439 20.9297 18.544C20.9229 18.5442 20.916 18.546 20.9092 18.546C20.8839 18.546 20.8588 18.5429 20.834 18.5411C20.8259 18.5405 20.8177 18.5409 20.8096 18.5401C20.7721 18.5364 20.7354 18.5303 20.6992 18.5225C20.6927 18.5211 20.6862 18.5192 20.6797 18.5177C20.6458 18.5097 20.6125 18.5007 20.5801 18.4893C20.5761 18.488 20.5723 18.4859 20.5684 18.4845C20.5348 18.4723 20.5025 18.458 20.4707 18.4425C20.468 18.4411 20.4646 18.4409 20.4619 18.4395L15.1221 15.7706L10.4961 18.4141C10.1866 18.5909 9.8063 18.5891 9.49805 18.4102C9.18992 18.2314 9.00016 17.9022 9 17.546V5.90927C9 5.55042 9.19235 5.21915 9.50391 5.0411L14.5947 2.13192C14.5976 2.13027 14.6006 2.12866 14.6035 2.12704C14.6705 2.08959 14.7421 2.05954 14.8174 2.03817C14.8229 2.03662 14.8285 2.03573 14.834 2.03427C14.8619 2.02687 14.8902 2.0207 14.9189 2.01571C14.9333 2.01321 14.9475 2.01075 14.9619 2.00887C14.9848 2.00593 15.0079 2.00341 15.0312 2.00204C15.042 2.0014 15.0527 2.00038 15.0635 2.00009H15.0908ZM16.0908 14.0186L19.9092 15.9278V6.52743L16.0908 4.61825V14.0186ZM21.9092 6.48934V15.8224L25 14.0557V4.72372L21.9092 6.48934ZM11 6.48934V15.8224L14.0908 14.0557V4.72274L11 6.48934Z" fill="#879AAF"/>
<path d="M0.444 29.812C0.444 28.996 0.632 28.264 1.008 27.616C1.392 26.968 1.908 26.464 2.556 26.104C3.212 25.736 3.928 25.552 4.704 25.552C5.592 25.552 6.38 25.772 7.068 26.212C7.764 26.644 8.268 27.26 8.58 28.06H6.936C6.72 27.62 6.42 27.292 6.036 27.076C5.652 26.86 5.208 26.752 4.704 26.752C4.152 26.752 3.66 26.876 3.228 27.124C2.796 27.372 2.456 27.728 2.208 28.192C1.968 28.656 1.848 29.196 1.848 29.812C1.848 30.428 1.968 30.968 2.208 31.432C2.456 31.896 2.796 32.256 3.228 32.512C3.66 32.76 4.152 32.884 4.704 32.884C5.208 32.884 5.652 32.776 6.036 32.56C6.42 32.344 6.72 32.016 6.936 31.576H8.58C8.268 32.376 7.764 32.992 7.068 33.424C6.38 33.856 5.592 34.072 4.704 34.072C3.92 34.072 3.204 33.892 2.556 33.532C1.908 33.164 1.392 32.656 1.008 32.008C0.632 31.36 0.444 30.628 0.444 29.812ZM13.0493 34.108C12.4253 34.108 11.8613 33.968 11.3573 33.688C10.8533 33.4 10.4573 33 10.1693 32.488C9.88125 31.968 9.73725 31.368 9.73725 30.688C9.73725 30.016 9.88525 29.42 10.1813 28.9C10.4773 28.38 10.8813 27.98 11.3933 27.7C11.9053 27.42 12.4773 27.28 13.1093 27.28C13.7413 27.28 14.3133 27.42 14.8253 27.7C15.3373 27.98 15.7413 28.38 16.0373 28.9C16.3333 29.42 16.4813 30.016 16.4813 30.688C16.4813 31.36 16.3293 31.956 16.0253 32.476C15.7213 32.996 15.3053 33.4 14.7773 33.688C14.2573 33.968 13.6813 34.108 13.0493 34.108ZM13.0493 32.92C13.4013 32.92 13.7293 32.836 14.0333 32.668C14.3453 32.5 14.5973 32.248 14.7893 31.912C14.9813 31.576 15.0773 31.168 15.0773 30.688C15.0773 30.208 14.9853 29.804 14.8013 29.476C14.6173 29.14 14.3733 28.888 14.0693 28.72C13.7653 28.552 13.4373 28.468 13.0853 28.468C12.7333 28.468 12.4053 28.552 12.1013 28.72C11.8053 28.888 11.5693 29.14 11.3933 29.476C11.2173 29.804 11.1293 30.208 11.1293 30.688C11.1293 31.4 11.3093 31.952 11.6693 32.344C12.0373 32.728 12.4973 32.92 13.0493 32.92ZM21.1696 27.28C21.6896 27.28 22.1536 27.388 22.5616 27.604C22.9776 27.82 23.3016 28.14 23.5336 28.564C23.7656 28.988 23.8816 29.5 23.8816 30.1V34H22.5256V30.304C22.5256 29.712 22.3776 29.26 22.0816 28.948C21.7856 28.628 21.3816 28.468 20.8696 28.468C20.3576 28.468 19.9496 28.628 19.6456 28.948C19.3496 29.26 19.2016 29.712 19.2016 30.304V34H17.8336V27.388H19.2016V28.144C19.4256 27.872 19.7096 27.66 20.0536 27.508C20.4056 27.356 20.7776 27.28 21.1696 27.28ZM28.3986 28.504H27.1746V34H25.7946V28.504H25.0146V27.388H25.7946V26.92C25.7946 26.16 25.9946 25.608 26.3946 25.264C26.8026 24.912 27.4386 24.736 28.3026 24.736V25.876C27.8866 25.876 27.5946 25.956 27.4266 26.116C27.2586 26.268 27.1746 26.536 27.1746 26.92V27.388H28.3986V28.504ZM30.3069 26.512C30.0589 26.512 29.8509 26.428 29.6829 26.26C29.5149 26.092 29.4309 25.884 29.4309 25.636C29.4309 25.388 29.5149 25.18 29.6829 25.012C29.8509 24.844 30.0589 24.76 30.3069 24.76C30.5469 24.76 30.7509 24.844 30.9189 25.012C31.0869 25.18 31.1709 25.388 31.1709 25.636C31.1709 25.884 31.0869 26.092 30.9189 26.26C30.7509 26.428 30.5469 26.512 30.3069 26.512ZM30.9789 27.388V34H29.6109V27.388H30.9789ZM35.439 27.28C35.951 27.28 36.403 27.384 36.795 27.592C37.195 27.792 37.507 28.044 37.731 28.348V27.388H39.111V34.108C39.111 34.716 38.983 35.256 38.727 35.728C38.471 36.208 38.099 36.584 37.611 36.856C37.131 37.128 36.555 37.264 35.883 37.264C34.987 37.264 34.243 37.052 33.651 36.628C33.059 36.212 32.723 35.644 32.643 34.924H33.999C34.103 35.268 34.323 35.544 34.659 35.752C35.003 35.968 35.411 36.076 35.883 36.076C36.435 36.076 36.879 35.908 37.215 35.572C37.559 35.236 37.731 34.748 37.731 34.108V33.004C37.499 33.316 37.183 33.58 36.783 33.796C36.391 34.004 35.943 34.108 35.439 34.108C34.863 34.108 34.335 33.964 33.855 33.676C33.383 33.38 33.007 32.972 32.727 32.452C32.455 31.924 32.319 31.328 32.319 30.664C32.319 30 32.455 29.412 32.727 28.9C33.007 28.388 33.383 27.992 33.855 27.712C34.335 27.424 34.863 27.28 35.439 27.28ZM37.731 30.688C37.731 30.232 37.635 29.836 37.443 29.5C37.259 29.164 37.015 28.908 36.711 28.732C36.407 28.556 36.079 28.468 35.727 28.468C35.375 28.468 35.047 28.556 34.743 28.732C34.439 28.9 34.191 29.152 33.999 29.488C33.815 29.816 33.723 30.208 33.723 30.664C33.723 31.12 33.815 31.52 33.999 31.864C34.191 32.208 34.439 32.472 34.743 32.656C35.055 32.832 35.383 32.92 35.727 32.92C36.079 32.92 36.407 32.832 36.711 32.656C37.015 32.48 37.259 32.224 37.443 31.888C37.635 31.544 37.731 31.144 37.731 30.688Z" fill="#394E66"/>
</svg>
