<svg width="45" height="42" viewBox="0 0 45 42" fill="none" xmlns="http://www.w3.org/2000/svg">
<path d="M25.5833 2.91667C24.9203 2.91667 24.2844 3.18006 23.8155 3.6489C23.3467 4.11774 23.0833 4.75363 23.0833 5.41667C23.0833 6.07971 23.3467 6.71559 23.8155 7.18443C24.2844 7.65328 24.9203 7.91667 25.5833 7.91667C26.2463 7.91667 26.8822 7.65328 27.3511 7.18443C27.8199 6.71559 28.0833 6.07971 28.0833 5.41667C28.0833 4.75363 27.8199 4.11774 27.3511 3.6489C26.8822 3.18006 26.2463 2.91667 25.5833 2.91667ZM21.4166 5.41667C21.4166 4.3116 21.8556 3.25179 22.637 2.47039C23.4184 1.68899 24.4782 1.25 25.5833 1.25C26.6884 1.25 27.7482 1.68899 28.5296 2.47039C29.311 3.25179 29.75 4.3116 29.75 5.41667C29.75 6.52174 29.311 7.58154 28.5296 8.36295C27.7482 9.14435 26.6884 9.58333 25.5833 9.58333C24.4782 9.58333 23.4184 9.14435 22.637 8.36295C21.8556 7.58154 21.4166 6.52174 21.4166 5.41667ZM12.6666 1.66667H20.1666V9.16667H12.6666V1.66667ZM14.3333 3.33333V7.5H18.5V3.33333H14.3333ZM12.6666 10.8333H20.1666V18.3333H12.6666V10.8333ZM14.3333 12.5V16.6667H18.5V12.5H14.3333ZM21.8333 10.8333H29.3333V18.3333H21.8333V10.8333ZM27.6666 12.5H23.5V16.6667H27.6666V12.5Z" fill="#879AAF"/>
<path d="M0.444 31.812C0.444 30.996 0.632 30.264 1.008 29.616C1.392 28.968 1.908 28.464 2.556 28.104C3.212 27.736 3.928 27.552 4.704 27.552C5.592 27.552 6.38 27.772 7.068 28.212C7.764 28.644 8.268 29.26 8.58 30.06H6.936C6.72 29.62 6.42 29.292 6.036 29.076C5.652 28.86 5.208 28.752 4.704 28.752C4.152 28.752 3.66 28.876 3.228 29.124C2.796 29.372 2.456 29.728 2.208 30.192C1.968 30.656 1.848 31.196 1.848 31.812C1.848 32.428 1.968 32.968 2.208 33.432C2.456 33.896 2.796 34.256 3.228 34.512C3.66 34.76 4.152 34.884 4.704 34.884C5.208 34.884 5.652 34.776 6.036 34.56C6.42 34.344 6.72 34.016 6.936 33.576H8.58C8.268 34.376 7.764 34.992 7.068 35.424C6.38 35.856 5.592 36.072 4.704 36.072C3.92 36.072 3.204 35.892 2.556 35.532C1.908 35.164 1.392 34.656 1.008 34.008C0.632 33.36 0.444 32.628 0.444 31.812ZM13.0493 36.108C12.4253 36.108 11.8613 35.968 11.3573 35.688C10.8533 35.4 10.4573 35 10.1693 34.488C9.88125 33.968 9.73725 33.368 9.73725 32.688C9.73725 32.016 9.88525 31.42 10.1813 30.9C10.4773 30.38 10.8813 29.98 11.3933 29.7C11.9053 29.42 12.4773 29.28 13.1093 29.28C13.7413 29.28 14.3133 29.42 14.8253 29.7C15.3373 29.98 15.7413 30.38 16.0373 30.9C16.3333 31.42 16.4813 32.016 16.4813 32.688C16.4813 33.36 16.3293 33.956 16.0253 34.476C15.7213 34.996 15.3053 35.4 14.7773 35.688C14.2573 35.968 13.6813 36.108 13.0493 36.108ZM13.0493 34.92C13.4013 34.92 13.7293 34.836 14.0333 34.668C14.3453 34.5 14.5973 34.248 14.7893 33.912C14.9813 33.576 15.0773 33.168 15.0773 32.688C15.0773 32.208 14.9853 31.804 14.8013 31.476C14.6173 31.14 14.3733 30.888 14.0693 30.72C13.7653 30.552 13.4373 30.468 13.0853 30.468C12.7333 30.468 12.4053 30.552 12.1013 30.72C11.8053 30.888 11.5693 31.14 11.3933 31.476C11.2173 31.804 11.1293 32.208 11.1293 32.688C11.1293 33.4 11.3093 33.952 11.6693 34.344C12.0373 34.728 12.4973 34.92 13.0493 34.92ZM21.1696 29.28C21.6896 29.28 22.1536 29.388 22.5616 29.604C22.9776 29.82 23.3016 30.14 23.5336 30.564C23.7656 30.988 23.8816 31.5 23.8816 32.1V36H22.5256V32.304C22.5256 31.712 22.3776 31.26 22.0816 30.948C21.7856 30.628 21.3816 30.468 20.8696 30.468C20.3576 30.468 19.9496 30.628 19.6456 30.948C19.3496 31.26 19.2016 31.712 19.2016 32.304V36H17.8336V29.388H19.2016V30.144C19.4256 29.872 19.7096 29.66 20.0536 29.508C20.4056 29.356 20.7776 29.28 21.1696 29.28ZM27.2226 30.504V34.164C27.2226 34.412 27.2786 34.592 27.3906 34.704C27.5106 34.808 27.7106 34.86 27.9906 34.86H28.8306V36H27.7506C27.1346 36 26.6626 35.856 26.3346 35.568C26.0066 35.28 25.8426 34.812 25.8426 34.164V30.504H25.0626V29.388H25.8426V27.744H27.2226V29.388H28.8306V30.504H27.2226ZM31.4594 30.348C31.6594 30.012 31.9234 29.752 32.2514 29.568C32.5874 29.376 32.9834 29.28 33.4394 29.28V30.696H33.0914C32.5554 30.696 32.1474 30.832 31.8674 31.104C31.5954 31.376 31.4594 31.848 31.4594 32.52V36H30.0914V29.388H31.4594V30.348ZM37.5649 36.108C36.9409 36.108 36.3769 35.968 35.8729 35.688C35.3689 35.4 34.9729 35 34.6849 34.488C34.3969 33.968 34.2529 33.368 34.2529 32.688C34.2529 32.016 34.4009 31.42 34.6969 30.9C34.9929 30.38 35.3969 29.98 35.9089 29.7C36.4209 29.42 36.9929 29.28 37.6249 29.28C38.2569 29.28 38.8289 29.42 39.3409 29.7C39.8529 29.98 40.2569 30.38 40.5529 30.9C40.8489 31.42 40.9969 32.016 40.9969 32.688C40.9969 33.36 40.8449 33.956 40.5409 34.476C40.2369 34.996 39.8209 35.4 39.2929 35.688C38.7729 35.968 38.1969 36.108 37.5649 36.108ZM37.5649 34.92C37.9169 34.92 38.2449 34.836 38.5489 34.668C38.8609 34.5 39.1129 34.248 39.3049 33.912C39.4969 33.576 39.5929 33.168 39.5929 32.688C39.5929 32.208 39.5009 31.804 39.3169 31.476C39.1329 31.14 38.8889 30.888 38.5849 30.72C38.2809 30.552 37.9529 30.468 37.6009 30.468C37.2489 30.468 36.9209 30.552 36.6169 30.72C36.3209 30.888 36.0849 31.14 35.9089 31.476C35.7329 31.804 35.6449 32.208 35.6449 32.688C35.6449 33.4 35.8249 33.952 36.1849 34.344C36.5529 34.728 37.0129 34.92 37.5649 34.92ZM43.7172 27.12V36H42.3492V27.12H43.7172Z" fill="#394E66"/>
</svg>
