<svg width="21" height="21" viewBox="0 0 21 21" fill="none" xmlns="http://www.w3.org/2000/svg">
<path fill-rule="evenodd" clip-rule="evenodd" d="M3.66409 9.95645C3.52627 10.2891 3.5 10.4591 3.5 10.5V17.5016C3.5 17.9838 3.8907 18.375 4.375 18.375H7V13.125C7 12.1585 7.7835 11.375 8.75 11.375H12.25C13.2165 11.375 14 12.1585 14 13.125V18.375H16.625C17.1093 18.375 17.5 17.9838 17.5 17.5016V10.5C17.5 10.4591 17.4737 10.2891 17.3359 9.95645C17.2079 9.6474 17.0138 9.26853 16.7604 8.83969C16.2543 7.98333 15.5444 6.98249 14.7497 6.02891C13.9532 5.07314 13.0934 4.19098 12.2939 3.55647C11.8943 3.23928 11.5269 2.99782 11.2048 2.83885C10.8754 2.67629 10.6436 2.625 10.5 2.625C10.3564 2.625 10.1246 2.67629 9.79519 2.83885C9.4731 2.99782 9.10569 3.23928 8.70606 3.55647C7.90658 4.19098 7.04679 5.07314 6.25032 6.02891C5.45567 6.98249 4.74566 7.98333 4.23964 8.83969C3.98622 9.26853 3.79212 9.6474 3.66409 9.95645ZM9.02072 1.26955C9.48089 1.04246 9.98734 0.875 10.5 0.875C11.0127 0.875 11.5191 1.04246 11.9793 1.26955C12.4467 1.50022 12.9202 1.81931 13.3818 2.18572C14.305 2.9184 15.2499 3.8956 16.094 4.90859C16.9401 5.92376 17.7066 7.00105 18.267 7.94939C18.5468 8.42287 18.7834 8.87792 18.9527 9.28673C19.1122 9.67181 19.25 10.1034 19.25 10.5V17.5016C19.25 18.9524 18.0737 20.125 16.625 20.125H14C13.0335 20.125 12.25 19.3415 12.25 18.375V13.125H8.75V18.375C8.75 19.3415 7.9665 20.125 7 20.125H4.375C2.9263 20.125 1.75 18.9524 1.75 17.5016V10.5C1.75 10.1034 1.88779 9.67181 2.04734 9.28673C2.21667 8.87792 2.45323 8.42287 2.73302 7.94939C3.2934 7.00105 4.05996 5.92376 4.90593 4.90859C5.75008 3.8956 6.69498 2.9184 7.61816 2.18572C8.07984 1.81931 8.55331 1.50022 9.02072 1.26955Z" fill="#14A29A"/>
</svg>
