<svg width="48" height="40" viewBox="0 0 48 40" fill="none" xmlns="http://www.w3.org/2000/svg">
<path d="M14.5 8.33333V6.66667C14.5 6.22464 14.6756 5.80072 14.9882 5.48816C15.3007 5.17559 15.7246 5 16.1667 5H17.8333M14.5 8.33333C15.6108 8.33333 17.8333 7.66667 17.8333 5M14.5 8.33333V11.6667M17.8333 5H26.1667M14.5 11.6667V13.3333C14.5 13.7754 14.6756 14.1993 14.9882 14.5118C15.3007 14.8244 15.7246 15 16.1667 15H17.8333M14.5 11.6667C15.6108 11.6667 17.8333 12.3333 17.8333 15M29.5 8.33333V6.66667C29.5 6.22464 29.3244 5.80072 29.0118 5.48816C28.6993 5.17559 28.2754 5 27.8333 5H26.1667M29.5 8.33333C28.3892 8.33333 26.1667 7.66667 26.1667 5M29.5 8.33333V11.6667M29.5 11.6667V13.3333C29.5 13.7754 29.3244 14.1993 29.0118 14.5118C28.6993 14.8244 28.2754 15 27.8333 15H26.1667M29.5 11.6667C28.3892 11.6667 26.1667 12.3333 26.1667 15M26.1667 15H17.8333" stroke="#879AAF" stroke-width="1.5" stroke-linecap="round" stroke-linejoin="round"/>
<path d="M22 11.6667C22.9205 11.6667 23.6667 10.9205 23.6667 10C23.6667 9.07954 22.9205 8.33334 22 8.33334C21.0796 8.33334 20.3334 9.07954 20.3334 10C20.3334 10.9205 21.0796 11.6667 22 11.6667Z" stroke="#879AAF" stroke-width="1.5" stroke-linecap="round" stroke-linejoin="round"/>
<path d="M2.268 25.66V34H0.9V25.66H2.268ZM7.40006 27.28C7.92006 27.28 8.38406 27.388 8.79206 27.604C9.20806 27.82 9.53206 28.14 9.76406 28.564C9.99606 28.988 10.1121 29.5 10.1121 30.1V34H8.75606V30.304C8.75606 29.712 8.60806 29.26 8.31206 28.948C8.01606 28.628 7.61206 28.468 7.10006 28.468C6.58806 28.468 6.18006 28.628 5.87606 28.948C5.58006 29.26 5.43206 29.712 5.43206 30.304V34H4.06406V27.388H5.43206V28.144C5.65606 27.872 5.94006 27.66 6.28406 27.508C6.63606 27.356 7.00806 27.28 7.40006 27.28ZM14.257 34.108C13.737 34.108 13.269 34.016 12.853 33.832C12.445 33.64 12.121 33.384 11.881 33.064C11.641 32.736 11.513 32.372 11.497 31.972H12.913C12.937 32.252 13.069 32.488 13.309 32.68C13.557 32.864 13.865 32.956 14.233 32.956C14.617 32.956 14.913 32.884 15.121 32.74C15.337 32.588 15.445 32.396 15.445 32.164C15.445 31.916 15.325 31.732 15.085 31.612C14.853 31.492 14.481 31.36 13.969 31.216C13.473 31.08 13.069 30.948 12.757 30.82C12.445 30.692 12.173 30.496 11.941 30.232C11.717 29.968 11.605 29.62 11.605 29.188C11.605 28.836 11.709 28.516 11.917 28.228C12.125 27.932 12.421 27.7 12.805 27.532C13.197 27.364 13.645 27.28 14.149 27.28C14.901 27.28 15.505 27.472 15.961 27.856C16.425 28.232 16.673 28.748 16.705 29.404H15.337C15.313 29.108 15.193 28.872 14.977 28.696C14.761 28.52 14.469 28.432 14.101 28.432C13.741 28.432 13.465 28.5 13.273 28.636C13.081 28.772 12.985 28.952 12.985 29.176C12.985 29.352 13.049 29.5 13.177 29.62C13.305 29.74 13.461 29.836 13.645 29.908C13.829 29.972 14.101 30.056 14.461 30.16C14.941 30.288 15.333 30.42 15.637 30.556C15.949 30.684 16.217 30.876 16.441 31.132C16.665 31.388 16.781 31.728 16.789 32.152C16.789 32.528 16.685 32.864 16.477 33.16C16.269 33.456 15.973 33.688 15.589 33.856C15.213 34.024 14.769 34.108 14.257 34.108ZM18.9632 26.512C18.7152 26.512 18.5072 26.428 18.3392 26.26C18.1712 26.092 18.0872 25.884 18.0872 25.636C18.0872 25.388 18.1712 25.18 18.3392 25.012C18.5072 24.844 18.7152 24.76 18.9632 24.76C19.2032 24.76 19.4072 24.844 19.5752 25.012C19.7432 25.18 19.8272 25.388 19.8272 25.636C19.8272 25.884 19.7432 26.092 19.5752 26.26C19.4072 26.428 19.2032 26.512 18.9632 26.512ZM19.6352 27.388V34H18.2672V27.388H19.6352ZM24.0953 27.28C24.6073 27.28 25.0593 27.384 25.4513 27.592C25.8513 27.792 26.1633 28.044 26.3873 28.348V27.388H27.7673V34.108C27.7673 34.716 27.6393 35.256 27.3833 35.728C27.1273 36.208 26.7553 36.584 26.2673 36.856C25.7873 37.128 25.2113 37.264 24.5393 37.264C23.6433 37.264 22.8993 37.052 22.3073 36.628C21.7153 36.212 21.3793 35.644 21.2993 34.924H22.6553C22.7593 35.268 22.9793 35.544 23.3153 35.752C23.6593 35.968 24.0673 36.076 24.5393 36.076C25.0913 36.076 25.5353 35.908 25.8713 35.572C26.2153 35.236 26.3873 34.748 26.3873 34.108V33.004C26.1553 33.316 25.8393 33.58 25.4393 33.796C25.0473 34.004 24.5993 34.108 24.0953 34.108C23.5193 34.108 22.9913 33.964 22.5113 33.676C22.0393 33.38 21.6633 32.972 21.3833 32.452C21.1113 31.924 20.9753 31.328 20.9753 30.664C20.9753 30 21.1113 29.412 21.3833 28.9C21.6633 28.388 22.0393 27.992 22.5113 27.712C22.9913 27.424 23.5193 27.28 24.0953 27.28ZM26.3873 30.688C26.3873 30.232 26.2913 29.836 26.0993 29.5C25.9153 29.164 25.6713 28.908 25.3673 28.732C25.0633 28.556 24.7353 28.468 24.3833 28.468C24.0313 28.468 23.7033 28.556 23.3993 28.732C23.0953 28.9 22.8473 29.152 22.6553 29.488C22.4713 29.816 22.3793 30.208 22.3793 30.664C22.3793 31.12 22.4713 31.52 22.6553 31.864C22.8473 32.208 23.0953 32.472 23.3993 32.656C23.7113 32.832 24.0393 32.92 24.3833 32.92C24.7353 32.92 25.0633 32.832 25.3673 32.656C25.6713 32.48 25.9153 32.224 26.0993 31.888C26.2913 31.544 26.3873 31.144 26.3873 30.688ZM32.9841 27.28C33.4881 27.28 33.9361 27.388 34.3281 27.604C34.7281 27.82 35.0401 28.14 35.2641 28.564C35.4961 28.988 35.6121 29.5 35.6121 30.1V34H34.2561V30.304C34.2561 29.712 34.1081 29.26 33.8121 28.948C33.5161 28.628 33.1121 28.468 32.6001 28.468C32.0881 28.468 31.6801 28.628 31.3761 28.948C31.0801 29.26 30.9321 29.712 30.9321 30.304V34H29.5641V25.12H30.9321V28.156C31.1641 27.876 31.4561 27.66 31.8081 27.508C32.1681 27.356 32.5601 27.28 32.9841 27.28ZM38.953 28.504V32.164C38.953 32.412 39.009 32.592 39.121 32.704C39.241 32.808 39.441 32.86 39.721 32.86H40.561V34H39.481C38.865 34 38.393 33.856 38.065 33.568C37.737 33.28 37.573 32.812 37.573 32.164V28.504H36.793V27.388H37.573V25.744H38.953V27.388H40.561V28.504H38.953ZM44.2219 34.108C43.7019 34.108 43.2339 34.016 42.8179 33.832C42.4099 33.64 42.0859 33.384 41.8459 33.064C41.6059 32.736 41.4779 32.372 41.4619 31.972H42.8779C42.9019 32.252 43.0339 32.488 43.2739 32.68C43.5219 32.864 43.8299 32.956 44.1979 32.956C44.5819 32.956 44.8779 32.884 45.0859 32.74C45.3019 32.588 45.4099 32.396 45.4099 32.164C45.4099 31.916 45.2899 31.732 45.0499 31.612C44.8179 31.492 44.4459 31.36 43.9339 31.216C43.4379 31.08 43.0339 30.948 42.7219 30.82C42.4099 30.692 42.1379 30.496 41.9059 30.232C41.6819 29.968 41.5699 29.62 41.5699 29.188C41.5699 28.836 41.6739 28.516 41.8819 28.228C42.0899 27.932 42.3859 27.7 42.7699 27.532C43.1619 27.364 43.6099 27.28 44.1139 27.28C44.8659 27.28 45.4699 27.472 45.9259 27.856C46.3899 28.232 46.6379 28.748 46.6699 29.404H45.3019C45.2779 29.108 45.1579 28.872 44.9419 28.696C44.7259 28.52 44.4339 28.432 44.0659 28.432C43.7059 28.432 43.4299 28.5 43.2379 28.636C43.0459 28.772 42.9499 28.952 42.9499 29.176C42.9499 29.352 43.0139 29.5 43.1419 29.62C43.2699 29.74 43.4259 29.836 43.6099 29.908C43.7939 29.972 44.0659 30.056 44.4259 30.16C44.9059 30.288 45.2979 30.42 45.6019 30.556C45.9139 30.684 46.1819 30.876 46.4059 31.132C46.6299 31.388 46.7459 31.728 46.7539 32.152C46.7539 32.528 46.6499 32.864 46.4419 33.16C46.2339 33.456 45.9379 33.688 45.5539 33.856C45.1779 34.024 44.7339 34.108 44.2219 34.108Z" fill="#394E66"/>
</svg>
