<svg width="25" height="24" viewBox="0 0 25 24" fill="none" xmlns="http://www.w3.org/2000/svg">
<path d="M10.25 6H7.25C6.71957 6 6.21086 6.21071 5.83579 6.58579C5.46071 6.96086 5.25 7.46957 5.25 8V17C5.25 17.5304 5.46071 18.0391 5.83579 18.4142C6.21086 18.7893 6.71957 19 7.25 19H16.25C16.7804 19 17.2891 18.7893 17.6642 18.4142C18.0393 18.0391 18.25 17.5304 18.25 17V14M14.25 7C14.25 7.79565 14.5661 8.55871 15.1287 9.12132C15.6913 9.68393 16.4544 10 17.25 10C18.0456 10 18.8087 9.68393 19.3713 9.12132C19.9339 8.55871 20.25 7.79565 20.25 7C20.25 6.20435 19.9339 5.44129 19.3713 4.87868C18.8087 4.31607 18.0456 4 17.25 4C16.4544 4 15.6913 4.31607 15.1287 4.87868C14.5661 5.44129 14.25 6.20435 14.25 7Z" stroke="#879AAF" stroke-width="2" stroke-linecap="round" stroke-linejoin="round"/>
</svg>
