<svg width="48" height="39" viewBox="0 0 48 39" fill="none" xmlns="http://www.w3.org/2000/svg">
<path d="M20.1846 11.1943C22.5704 11.1943 24.5039 13.1278 24.5039 15.5137V16.4248C24.5039 16.839 24.1681 17.1748 23.7539 17.1748C23.3399 17.1746 23.0039 16.8389 23.0039 16.4248V15.5137C23.0039 13.9563 21.742 12.6943 20.1846 12.6943H16.5693C15.012 12.6944 13.75 13.9563 13.75 15.5137V16.4248C13.75 16.839 13.4142 17.1748 13 17.1748C12.5858 17.1748 12.25 16.839 12.25 16.4248V15.5137C12.25 13.1279 14.1836 11.1944 16.5693 11.1943H20.1846ZM27.4307 11.1943C29.8164 11.1944 31.75 13.1279 31.75 15.5137V16.4248C31.75 16.839 31.4142 17.1748 31 17.1748C30.5858 17.1748 30.25 16.839 30.25 16.4248V15.5137C30.25 13.9563 28.988 12.6944 27.4307 12.6943H26.4434C26.0293 12.6943 25.6936 12.3583 25.6934 11.9443C25.6934 11.5301 26.0291 11.1943 26.4434 11.1943H27.4307ZM18.377 2.25C20.5185 2.25 22.2549 3.98634 22.2549 6.12793C22.2548 8.26941 20.5185 10.0059 18.377 10.0059C16.2354 10.0059 14.4992 8.26941 14.499 6.12793C14.499 3.98634 16.2354 2.25 18.377 2.25ZM26.4424 4.02441C28.0939 4.02441 29.4325 5.36317 29.4326 7.01465C29.4326 8.66624 28.094 10.0049 26.4424 10.0049C24.7909 10.0048 23.4521 8.66616 23.4521 7.01465C23.4523 5.36324 24.791 4.02454 26.4424 4.02441ZM18.377 3.75C17.0638 3.75 15.999 4.81477 15.999 6.12793C15.9992 7.44098 17.0639 8.50586 18.377 8.50586C19.69 8.50586 20.7548 7.44098 20.7549 6.12793C20.7549 4.81477 19.6901 3.75 18.377 3.75ZM26.4424 5.52441C25.6194 5.52454 24.9523 6.19167 24.9521 7.01465C24.9521 7.83773 25.6193 8.50476 26.4424 8.50488C27.2655 8.50488 27.9326 7.83781 27.9326 7.01465C27.9325 6.19159 27.2655 5.52441 26.4424 5.52441Z" fill="#879AAF"/>
<path d="M3.648 33.084C3.088 33.084 2.584 32.988 2.136 32.796C1.688 32.596 1.336 32.316 1.08 31.956C0.824 31.596 0.696 31.176 0.696 30.696H2.16C2.192 31.056 2.332 31.352 2.58 31.584C2.836 31.816 3.192 31.932 3.648 31.932C4.12 31.932 4.488 31.82 4.752 31.596C5.016 31.364 5.148 31.068 5.148 30.708C5.148 30.428 5.064 30.2 4.896 30.024C4.736 29.848 4.532 29.712 4.284 29.616C4.044 29.52 3.708 29.416 3.276 29.304C2.732 29.16 2.288 29.016 1.944 28.872C1.608 28.72 1.32 28.488 1.08 28.176C0.84 27.864 0.72 27.448 0.72 26.928C0.72 26.448 0.84 26.028 1.08 25.668C1.32 25.308 1.656 25.032 2.088 24.84C2.52 24.648 3.02 24.552 3.588 24.552C4.396 24.552 5.056 24.756 5.568 25.164C6.088 25.564 6.376 26.116 6.432 26.82H4.92C4.896 26.516 4.752 26.256 4.488 26.04C4.224 25.824 3.876 25.716 3.444 25.716C3.052 25.716 2.732 25.816 2.484 26.016C2.236 26.216 2.112 26.504 2.112 26.88C2.112 27.136 2.188 27.348 2.34 27.516C2.5 27.676 2.7 27.804 2.94 27.9C3.18 27.996 3.508 28.1 3.924 28.212C4.476 28.364 4.924 28.516 5.268 28.668C5.62 28.82 5.916 29.056 6.156 29.376C6.404 29.688 6.528 30.108 6.528 30.636C6.528 31.06 6.412 31.46 6.18 31.836C5.956 32.212 5.624 32.516 5.184 32.748C4.752 32.972 4.24 33.084 3.648 33.084ZM14.1302 26.388V33H12.7622V32.22C12.5462 32.492 12.2622 32.708 11.9102 32.868C11.5662 33.02 11.1982 33.096 10.8062 33.096C10.2862 33.096 9.81819 32.988 9.40219 32.772C8.99419 32.556 8.67019 32.236 8.43019 31.812C8.19819 31.388 8.08219 30.876 8.08219 30.276V26.388H9.43819V30.072C9.43819 30.664 9.58619 31.12 9.88219 31.44C10.1782 31.752 10.5822 31.908 11.0942 31.908C11.6062 31.908 12.0102 31.752 12.3062 31.44C12.6102 31.12 12.7622 30.664 12.7622 30.072V26.388H14.1302ZM17.3032 27.348C17.5032 27.012 17.7672 26.752 18.0952 26.568C18.4312 26.376 18.8272 26.28 19.2832 26.28V27.696H18.9352C18.3992 27.696 17.9912 27.832 17.7112 28.104C17.4392 28.376 17.3032 28.848 17.3032 29.52V33H15.9352V26.388H17.3032V27.348ZM23.0966 31.776L24.9686 26.388H26.4206L23.9006 33H22.2686L19.7606 26.388H21.2246L23.0966 31.776ZM33.5147 29.532C33.5147 29.78 33.4987 30.004 33.4667 30.204H28.4147C28.4547 30.732 28.6507 31.156 29.0027 31.476C29.3547 31.796 29.7867 31.956 30.2987 31.956C31.0347 31.956 31.5547 31.648 31.8587 31.032H33.3347C33.1347 31.64 32.7707 32.14 32.2427 32.532C31.7227 32.916 31.0747 33.108 30.2987 33.108C29.6667 33.108 29.0987 32.968 28.5947 32.688C28.0987 32.4 27.7067 32 27.4187 31.488C27.1387 30.968 26.9987 30.368 26.9987 29.688C26.9987 29.008 27.1347 28.412 27.4067 27.9C27.6867 27.38 28.0747 26.98 28.5707 26.7C29.0747 26.42 29.6507 26.28 30.2987 26.28C30.9227 26.28 31.4787 26.416 31.9667 26.688C32.4547 26.96 32.8347 27.344 33.1067 27.84C33.3787 28.328 33.5147 28.892 33.5147 29.532ZM32.0867 29.1C32.0787 28.596 31.8987 28.192 31.5467 27.888C31.1947 27.584 30.7587 27.432 30.2387 27.432C29.7667 27.432 29.3627 27.584 29.0267 27.888C28.6907 28.184 28.4907 28.588 28.4267 29.1H32.0867ZM40.8129 26.388L36.7569 36.108H35.3409L36.6849 32.892L34.0809 26.388H35.6049L37.4649 31.428L39.3969 26.388H40.8129ZM44.2453 33.108C43.7253 33.108 43.2573 33.016 42.8413 32.832C42.4333 32.64 42.1093 32.384 41.8693 32.064C41.6293 31.736 41.5013 31.372 41.4853 30.972H42.9013C42.9253 31.252 43.0573 31.488 43.2973 31.68C43.5453 31.864 43.8533 31.956 44.2213 31.956C44.6053 31.956 44.9013 31.884 45.1093 31.74C45.3253 31.588 45.4333 31.396 45.4333 31.164C45.4333 30.916 45.3133 30.732 45.0733 30.612C44.8413 30.492 44.4693 30.36 43.9573 30.216C43.4613 30.08 43.0573 29.948 42.7453 29.82C42.4333 29.692 42.1613 29.496 41.9293 29.232C41.7053 28.968 41.5933 28.62 41.5933 28.188C41.5933 27.836 41.6973 27.516 41.9053 27.228C42.1133 26.932 42.4093 26.7 42.7933 26.532C43.1853 26.364 43.6333 26.28 44.1373 26.28C44.8893 26.28 45.4933 26.472 45.9493 26.856C46.4133 27.232 46.6613 27.748 46.6933 28.404H45.3253C45.3013 28.108 45.1813 27.872 44.9653 27.696C44.7493 27.52 44.4573 27.432 44.0893 27.432C43.7293 27.432 43.4533 27.5 43.2613 27.636C43.0693 27.772 42.9733 27.952 42.9733 28.176C42.9733 28.352 43.0373 28.5 43.1653 28.62C43.2933 28.74 43.4493 28.836 43.6333 28.908C43.8173 28.972 44.0893 29.056 44.4493 29.16C44.9293 29.288 45.3213 29.42 45.6253 29.556C45.9373 29.684 46.2053 29.876 46.4293 30.132C46.6533 30.388 46.7693 30.728 46.7773 31.152C46.7773 31.528 46.6733 31.864 46.4653 32.16C46.2573 32.456 45.9613 32.688 45.5773 32.856C45.2013 33.024 44.7573 33.108 44.2453 33.108Z" fill="#394E66"/>
</svg>
